<svg xmlns="http://www.w3.org/2000/svg" width="1000" height="1000"><path d="M 100 200 M 150 200 A 50 50 0 1 0 50 200 A 50 50 0 1 0 150 200 " stroke="#febb38" stroke-width="1" fill="#febb38"></path><path d="M 100 200 M 150 200 A 50 50 0 1 0 50 200 A 50 50 0 1 0 150 200 " stroke="#febb38" stroke-width="1" fill="#febb38"></path><text x="100.3" y="100.2" font-size="12.8" fill="#ffaa88">hello world</text><path d="M 1100 1200 M 1150 1200 A 50 50 0 1 0 1050 1200 A 50 50 0 1 0 1150 1200 " stroke="#febb38" stroke-width="1" fill="#febb38"></path><text x="100.3" y="100.2" font-size="12.8" fill="#ffaa88">hello world</text><path d="M 600 700 M 650 700 A 50 50 0 1 0 550 700 A 50 50 0 1 0 650 700 " stroke="#febb38" stroke-width="1" fill="#febb38"></path><text x="100.3" y="100.2" font-size="12.8" fill="#ffaa88">hello world</text></svg>