<svg xmlns="http://www.w3.org/2000/svg" width="1000" height="1000"><path d="M 100 200 M 125 200 A 25 25 0 1 0 75 200 A 25 25 0 1 0 125 200 " stroke="#febb38" stroke-width="1" fill="#febb38"></path><path d="M 200 300 M 225 300 A 25 25 0 1 0 175 300 A 25 25 0 1 0 225 300 " stroke="#febb38" stroke-width="1" fill="#febb38"></path><text x="100.3" y="100.2" font-size="12.8" fill="#ffaa88">hello world</text><path d="M 150 150 M 175 150 A 25 25 0 1 0 125 150 A 25 25 0 1 0 175 150 " stroke="#febb38" stroke-width="1" fill="#febb38"></path><text x="50.3" y="-49.8" font-size="12.8" fill="#ffaa88">hello world</text><path d="M 0 0 L 10 0L 0 10L 0 0" stroke="#00fefe" stroke-width="1" fill="#00fefe"></path><text x="350.3" y="250.2" font-size="12.8" fill="#ffaa88">hello world</text><path d="M 100 0 L 110 0L 100 10L 100 0" stroke="#00fefe" stroke-width="1" fill="#00fefe"></path><path d="M 200 0 L 210 0L 200 10L 200 0" stroke="#000000" stroke-width="1" fill="#000000"></path></svg>